<svg xmlns="http://www.w3.org/2000/svg" width="340" height="26" viewBox="0 0 340 26" fill="none"><path d="M14.4811 19.6728L11.2399 16.4313C11.1214 16.3129 10.9814 16.2913 10.906 16.2913C10.8307 16.2913 10.6907 16.3129 10.5722 16.4313L7.32021 19.6837C6.95409 20.0498 6.38338 20.642 4.47738 20.642L8.47241 24.6266C9.07813 25.2317 9.89921 25.5716 10.7553 25.5716C11.6114 25.5716 12.4324 25.2317 13.0382 24.6266L17.0439 20.6313C16.0641 20.6313 15.2456 20.4375 14.4811 19.6728ZM7.32021 9.92674L10.5722 13.179C10.6584 13.2652 10.7876 13.319 10.906 13.319C11.0245 13.319 11.1537 13.2652 11.2399 13.179L14.4596 9.95905C15.2242 9.16213 16.0964 8.97905 17.0763 8.97905L13.0705 4.9837C12.4648 4.37868 11.6437 4.03885 10.7876 4.03885C9.93151 4.03885 9.11044 4.37868 8.50473 4.9837L4.5097 8.96828C6.4049 8.96828 6.98639 9.5929 7.32021 9.92674Z" fill="#687B8D"></path><path d="M20.5753 12.487L18.1525 10.0531H16.7957C16.2142 10.0531 15.6326 10.2901 15.2342 10.71L12.0038 13.9408C11.7023 14.2423 11.3038 14.3931 10.9054 14.3931C10.4951 14.3873 10.1024 14.2256 9.80705 13.9408L6.55504 10.6777C6.14584 10.2685 5.58589 10.0316 4.99364 10.0316H3.41071L0.944768 12.5085C0.339806 13.1143 0 13.9354 0 14.7916C0 15.6477 0.339806 16.4688 0.944768 17.0747L3.41071 19.5515H5.00441C5.58589 19.5515 6.14584 19.3147 6.56581 18.9054L9.81782 15.6531C10.1193 15.3516 10.5178 15.2008 10.9162 15.2008C11.3146 15.2008 11.713 15.3516 12.0146 15.6531L15.2558 18.8945C15.6651 19.3038 16.2249 19.5408 16.8173 19.5408H18.174L20.5969 17.1069C21.2044 16.4903 21.5431 15.6582 21.5391 14.7925C21.5351 13.9268 21.1886 13.0979 20.5753 12.487Z" fill="#687B8D"></path><path d="M52.2286 24.2282C50.3656 24.2286 48.5443 23.6763 46.9951 22.6414C45.4458 21.6064 44.2383 20.1354 43.5251 18.4142C42.8118 16.6929 42.625 14.7987 42.9883 12.9713C43.3514 11.1438 44.2483 9.4651 45.5655 8.14742C46.8826 6.82974 48.561 5.93228 50.3881 5.56851C52.2153 5.20475 54.1093 5.39102 55.8308 6.10379C57.5521 6.81654 59.0234 8.02378 60.0586 9.57283C61.094 11.1219 61.6468 12.9431 61.6469 14.8063C61.6444 17.3039 60.6513 19.6996 58.8856 21.4657C57.1199 23.2318 54.7259 24.2254 52.2286 24.2282Z" fill="#687B8D"></path><path d="M43.0618 24.2282C41.1988 24.2282 39.3774 23.6758 37.8284 22.6406C36.2794 21.6055 35.0721 20.1342 34.3591 18.4129C33.6462 16.6914 33.4595 14.7973 33.8231 12.9699C34.1865 11.1425 35.0836 9.46392 36.4011 8.14643C37.7183 6.82895 39.3968 5.93172 41.224 5.56824C43.0514 5.20475 44.9453 5.39131 46.6665 6.10431C48.3878 6.81734 49.859 8.02479 50.894 9.57398C51.9291 11.1232 52.4816 12.9445 52.4816 14.8077C52.479 17.3054 51.4857 19.7001 49.7196 21.4661C47.9538 23.2323 45.5592 24.2257 43.0618 24.2282Z" fill="#687B8D"></path><path d="M117.319 22.6519L116.851 20.3107H111.619L110.787 22.6353L106.594 22.6436C108.59 17.8429 110.591 13.0437 112.595 8.24648C112.937 7.43277 113.542 7.01861 114.435 7.02278C115.117 7.02903 116.231 7.02902 117.777 7.02486L121.019 22.6457L117.319 22.6519ZM112.797 17.1037H116.168L114.909 11.235L112.797 17.1037ZM85.7678 7.02071L89.9838 7.02486L83.4663 22.654L79.1983 22.6498C78.125 18.5215 77.0652 14.3899 76.0186 10.2548C75.8106 9.43063 75.3984 8.85416 74.6056 8.58153C73.4346 8.18908 72.2579 7.81306 71.0763 7.45357V7.02694H77.8123C78.9778 7.02694 79.6582 7.59093 79.8767 8.74802C80.0972 9.90721 80.6508 12.8582 81.5414 17.6011L85.7678 7.02071ZM95.7772 7.02486L92.4435 22.6498L88.4314 22.6457L91.761 7.02071L95.7772 7.02486ZM103.914 6.73558C105.114 6.73558 106.627 7.11018 107.497 7.45357L106.794 10.6939C106.007 10.3775 104.713 9.95091 103.624 9.96549C102.043 9.99253 101.065 10.6564 101.065 11.2932C101.065 12.3296 102.763 12.852 104.511 13.9841C106.506 15.2744 106.769 16.4335 106.744 17.6926C106.717 20.3066 104.511 22.8851 99.8579 22.8851C97.7354 22.8539 96.9696 22.6749 95.2382 22.0609L95.9708 18.6791C97.7333 19.4179 98.4804 19.6531 99.9869 19.6531C101.367 19.6531 102.551 19.0954 102.561 18.1235C102.569 17.4325 102.145 17.0892 100.597 16.2358C99.0485 15.3806 96.8759 14.1964 96.905 11.8198C96.9405 8.77717 99.8226 6.73558 103.916 6.73558H103.914Z" fill="#687B8D"></path><path d="M134.392 18.8607C134.212 18.5692 133.967 18.1029 133.82 17.7599C132.951 15.7408 132.909 13.6513 133.644 11.6455C134.451 9.44572 135.993 7.76158 137.987 6.90413C140.492 5.82574 143.263 6.03833 145.665 7.46337C147.19 8.3386 148.272 9.68995 149.093 11.6005L149.169 11.7864L149.311 12.1555C149.334 12.215 149.356 12.2729 149.379 12.3284L134.392 18.8607ZM139.396 10.1454C137.617 10.9102 136.7 12.5794 136.888 14.5367L144.426 11.2925C143.13 9.76891 141.443 9.26407 139.396 10.1454ZM148.279 19.1521L145.366 17.2041L145.361 17.2084L145.205 17.1033C144.756 17.8331 144.054 18.4244 143.168 18.8082C141.483 19.541 139.922 19.3527 138.801 18.3693L138.698 18.526L138.695 18.5228L136.782 21.3838C137.258 21.7145 137.768 21.9935 138.302 22.2164C140.414 23.0939 142.576 23.0533 144.705 22.1273C146.245 21.4597 147.453 20.4423 148.279 19.1521ZM154.617 2.69048V18.5963L157.09 19.5986L155.685 22.8774L152.955 21.7407C152.343 21.4754 151.926 21.0693 151.61 20.611C151.308 20.1439 151.083 19.5029 151.083 18.6396V2.69063L154.617 2.69048ZM161.024 14.5443C161.024 13.1899 161.623 11.9752 162.569 11.1497L160.031 8.3207C158.311 9.84162 157.228 12.0642 157.226 14.5404C157.223 17.0175 158.305 19.2423 160.023 20.7671L162.558 17.9354C161.617 17.1066 161.022 15.8956 161.024 14.5443ZM165.53 19.059C165.032 19.0575 164.551 18.9749 164.102 18.8257L162.89 22.4282C163.74 22.7131 164.631 22.8585 165.527 22.8592C169.543 22.863 172.897 20.0127 173.674 16.2235L169.951 15.4631C169.527 17.5168 167.708 19.0603 165.53 19.059ZM165.541 6.23802C164.647 6.23627 163.756 6.37948 162.908 6.6621L164.108 10.2679C164.57 10.1153 165.052 10.0374 165.538 10.0373C167.721 10.0394 169.541 11.5919 169.955 13.6516L173.679 12.8962C172.912 9.10156 169.562 6.24052 165.541 6.23802Z" fill="#687B8D"></path><path d="M212.168 24.2212H187.676C187.176 24.2212 186.697 24.0227 186.343 23.6694C185.99 23.3161 185.792 22.8368 185.792 22.3371V14.4109H187.149L187.456 13.6698H188.141L188.447 14.4078H191.117V13.8465L191.355 14.4117H192.742L192.98 13.837V14.4101H199.615V13.198H199.742C199.831 13.2011 199.857 13.209 199.857 13.3581V14.4117H203.289V14.1299C203.641 14.3081 204.055 14.4125 204.493 14.4125L204.568 14.4117H204.565H206.008L206.318 13.6737H207.003L207.305 14.4117H210.089V13.7099L210.509 14.4117H212.735V9.77663H210.532V10.3238L210.223 9.77663H207.959V10.3238L207.674 9.77663H204.616C204.152 9.7532 203.69 9.84859 203.275 10.0538L203.291 10.0467V9.77663H201.18V10.0467C200.926 9.84536 200.603 9.74905 200.279 9.77741H200.283H192.573L192.055 10.9746L191.523 9.77741H189.094V10.3246L188.827 9.77741H186.754L185.794 11.9756V7.26516C185.794 6.76545 185.993 6.28619 186.347 5.93284C186.7 5.57949 187.179 5.38098 187.678 5.38098H212.171C212.67 5.38098 213.149 5.57949 213.503 5.93284C213.856 6.28619 214.055 6.76545 214.055 7.26516V15.4928H212.584C212.561 15.4912 212.533 15.4912 212.505 15.4912C212.165 15.4912 211.849 15.5933 211.585 15.7683L211.591 15.7644V15.4928H209.416C209.076 15.474 208.74 15.5705 208.462 15.7668L208.467 15.7636V15.492H204.584V15.7636C204.266 15.5844 203.908 15.4907 203.543 15.492H203.511H203.513H200.951V15.7636C200.617 15.5492 200.221 15.4538 199.825 15.4928L199.833 15.492H196.966L196.309 16.2016L195.695 15.492H191.414V20.1302H195.615L196.291 19.4094L196.927 20.1302H199.518V19.0444H199.879C200.226 19.058 200.573 19 200.897 18.8741L200.879 18.8803V20.1318H203.014V18.9236H203.117C203.248 18.9236 203.261 18.9283 203.261 19.0601V20.1326H209.75L209.829 20.1342C210.201 20.1342 210.548 20.0226 210.837 19.832L210.831 19.8358V20.1326H212.889L212.986 20.1342C213.372 20.1342 213.739 20.0549 214.071 19.9112L214.054 19.9183V22.3379C214.054 22.8376 213.854 23.3169 213.501 23.6702C213.148 24.0235 212.668 24.222 212.17 24.222L212.168 24.2212ZM202.359 19.4802H201.56V16.1553H203.395C203.726 16.1246 204.06 16.1804 204.362 16.317L204.35 16.3124C204.595 16.4474 204.76 16.7049 204.76 17L204.758 17.0528V17.0504V17.0803C204.758 17.4617 204.529 17.79 204.199 17.9328L204.192 17.9351C204.35 17.9916 204.483 18.0882 204.581 18.2131L204.582 18.2146C204.692 18.3982 204.739 18.6133 204.713 18.8261L204.715 18.8215V19.4794H203.917V19.0633C203.954 18.8367 203.909 18.6042 203.79 18.4086L203.791 18.4124C203.708 18.3496 203.614 18.3041 203.513 18.279C203.412 18.2537 203.307 18.2491 203.205 18.2657L203.209 18.2649H202.359V19.4802ZM202.359 16.8423V17.5889H203.324C203.462 17.6015 203.599 17.5771 203.722 17.5183L203.718 17.5207C203.769 17.4879 203.81 17.4432 203.839 17.3904C203.868 17.3377 203.882 17.2786 203.882 17.2183V17.2003C203.885 17.1403 203.873 17.0812 203.844 17.0285C203.815 16.9756 203.772 16.932 203.719 16.9027L203.718 16.9019C203.599 16.8487 203.468 16.8271 203.337 16.8391H203.34L202.359 16.8423ZM195.275 19.4794H192.13V16.1553H195.325L196.301 17.245L197.313 16.1553H199.85C200.752 16.1553 201.189 16.5142 201.189 17.2506C201.189 18.0003 200.736 18.3646 199.807 18.3646H198.815V19.4786H197.271L196.293 18.3803L195.275 19.4794ZM198.024 16.5118L196.803 17.8229L198.024 19.1763V16.5118ZM192.921 18.1251V18.7862H194.874L195.777 17.8111L194.909 16.8423H192.921V17.4469H194.665V18.1243L192.921 18.1251ZM198.815 16.8431V17.6894H199.841C200.154 17.6894 200.335 17.5293 200.335 17.2498C200.335 16.9828 200.167 16.8423 199.849 16.8423L198.815 16.8431ZM212.975 19.481H211.441V18.7665H212.969C213.082 18.7824 213.199 18.7525 213.292 18.6833L213.29 18.6841C213.32 18.6567 213.343 18.6235 213.359 18.5868C213.375 18.5498 213.384 18.51 213.384 18.4698V18.4571C213.384 18.4175 213.375 18.3782 213.359 18.3421C213.341 18.3061 213.317 18.274 213.287 18.2484C213.205 18.1896 213.106 18.1634 213.006 18.1746L212.86 18.1698C212.143 18.151 211.331 18.1291 211.331 17.1453C211.331 16.6665 211.631 16.1553 212.47 16.1553H214.054V16.8636H212.604C212.493 16.8509 212.381 16.8735 212.282 16.928L212.285 16.9264C212.246 16.9518 212.215 16.9873 212.194 17.029C212.175 17.0707 212.165 17.1172 212.17 17.1634V17.1712C212.17 17.2241 212.186 17.2757 212.216 17.3185C212.248 17.3614 212.291 17.3933 212.342 17.4099L212.344 17.4107C212.443 17.4414 212.547 17.4542 212.651 17.4485H212.649L213.079 17.4593C213.405 17.427 213.729 17.5237 213.984 17.7286L213.98 17.7272C214.004 17.746 214.025 17.7663 214.043 17.7892L214.044 17.79L214.054 19.0555C213.921 19.2097 213.753 19.3292 213.565 19.4032C213.375 19.4773 213.17 19.5037 212.969 19.4802L212.975 19.481ZM209.875 19.481H208.326V18.7665H209.867C209.982 18.7816 210.099 18.7518 210.193 18.6833L210.191 18.6841C210.22 18.6566 210.244 18.6235 210.26 18.5866C210.276 18.5497 210.284 18.5099 210.284 18.4698V18.4619C210.284 18.4215 210.274 18.3816 210.258 18.3448C210.241 18.3079 210.217 18.2751 210.187 18.2484C210.105 18.1896 210.003 18.1633 209.902 18.1746L209.758 18.1698C209.042 18.151 208.231 18.1291 208.231 17.1453C208.231 16.6665 208.529 16.1553 209.367 16.1553H210.958V16.8636H209.501C209.391 16.8511 209.279 16.8736 209.181 16.928L209.183 16.9264C209.143 16.9546 209.109 16.9936 209.089 17.0392C209.068 17.0847 209.06 17.1349 209.065 17.1848C209.07 17.2345 209.089 17.2819 209.119 17.322C209.149 17.362 209.189 17.3932 209.236 17.4123L209.237 17.4131C209.338 17.444 209.443 17.4568 209.549 17.4507H209.546L209.974 17.4617C210.302 17.4302 210.628 17.5271 210.883 17.7318L210.882 17.7294C210.968 17.8246 211.034 17.9365 211.074 18.0583C211.115 18.18 211.129 18.3088 211.118 18.4369V18.4329C211.12 19.1261 210.701 19.4794 209.872 19.4794L209.875 19.481ZM207.85 19.481H205.197V16.1547H207.849V16.8415H205.99V17.4461H207.805V18.1236H205.99V18.7846L207.85 18.7878V19.481ZM209.397 13.7609H207.78L207.47 13.0198H205.821L205.52 13.7609H204.59C204.173 13.7829 203.762 13.6514 203.435 13.3911L203.44 13.3935C203.283 13.2219 203.166 13.0199 203.093 12.8003C203.019 12.5806 202.994 12.3482 203.014 12.1177V12.124C202.994 11.8893 203.022 11.653 203.096 11.4294C203.169 11.2057 203.288 10.9995 203.444 10.8231L203.443 10.8247C203.607 10.6805 203.801 10.5719 204.008 10.5054C204.218 10.439 204.438 10.4162 204.656 10.4384L204.649 10.4377H205.42V11.1466H204.665C204.555 11.1324 204.443 11.1427 204.338 11.1767C204.231 11.2108 204.135 11.2678 204.053 11.3436C203.885 11.5586 203.804 11.8277 203.825 12.0997V12.0957C203.801 12.3751 203.879 12.654 204.045 12.8793L204.044 12.8761C204.2 13.0036 204.4 13.0651 204.6 13.0473H204.597H204.953L206.076 10.433H207.27L208.614 13.5733V10.433H209.824L211.221 12.7473V10.433H212.037V13.7554H210.902L209.396 11.2604V13.7554L209.397 13.7609ZM206.65 10.999L206.104 12.3242H207.2L206.65 10.999ZM198.959 13.7593H198.164V10.4353H199.991C200.325 10.4007 200.662 10.4574 200.966 10.5994L200.953 10.5947C201.076 10.6622 201.178 10.7613 201.249 10.8815C201.319 11.0018 201.357 11.1389 201.357 11.2785L201.356 11.3334V11.3311V11.3554C201.356 11.5367 201.303 11.7142 201.205 11.8666C201.106 12.0189 200.967 12.1396 200.801 12.2143L200.795 12.2166C200.953 12.2763 201.086 12.3721 201.186 12.4946L201.188 12.4961C201.3 12.6803 201.346 12.897 201.319 13.1108L201.321 13.1061V13.7585H200.518L200.515 13.3393V13.2765C200.544 13.0715 200.499 12.8631 200.387 12.6885L200.39 12.6924C200.307 12.6313 200.213 12.5873 200.112 12.5629C200.012 12.5385 199.908 12.5342 199.806 12.5503L199.81 12.5495H198.959V13.7593ZM198.959 11.127V11.8649H199.922C200.058 11.8797 200.195 11.8552 200.319 11.7943L200.315 11.7958C200.365 11.7653 200.406 11.7223 200.435 11.671C200.464 11.6197 200.48 11.5619 200.48 11.503L200.478 11.481C200.483 11.4214 200.469 11.3626 200.44 11.3106C200.41 11.2586 200.366 11.2163 200.314 11.189L200.312 11.1882C200.192 11.1369 200.061 11.1154 199.932 11.1254H199.935L198.959 11.127ZM190.546 13.7593H188.932L188.627 13.0182H186.972L186.665 13.7593H185.8L187.224 10.4353H188.403L189.755 13.5811V10.4353H191.051L192.09 12.6893L193.046 10.4353H194.369V13.7577H193.552L193.551 11.1576L192.399 13.7585H191.702L190.546 11.1536V13.7593ZM187.796 10.999L187.254 12.3242H188.339L187.796 10.999ZM202.623 13.7585H201.813V10.4353H202.623V13.7585ZM197.61 13.7585H194.96V10.4353H197.615V11.1262H195.756V11.7252H197.57V12.4074H195.754V13.0716H197.613V13.7577L197.61 13.7585Z" fill="#687B8D"></path><path d="M237.502 7.39528C233.427 7.39528 230.11 10.701 230.11 14.7886C230.11 18.8642 233.427 22.1819 237.502 22.1819C241.589 22.1819 244.895 18.8642 244.895 14.7886C244.895 13.8175 244.705 12.8558 244.332 11.9585C243.962 11.0612 243.417 10.2459 242.731 9.5592C242.044 8.87251 241.229 8.32795 240.332 7.95664C239.434 7.58535 238.472 7.39459 237.502 7.39528ZM235.824 19.1533C234.07 18.485 232.822 16.7817 232.822 14.7879C232.822 12.794 234.07 11.0916 235.824 10.4103V19.1533ZM239.179 19.1662V10.4103C240.933 11.0916 242.181 12.7948 242.181 14.7879C242.181 16.7809 240.933 18.485 239.179 19.1662ZM249.625 5.38098H229.44C228.905 5.38117 228.392 5.59394 228.013 5.9725C227.634 6.35107 227.422 6.86445 227.422 7.39983V22.2032C227.422 22.7385 227.634 23.252 228.013 23.6306C228.392 24.0091 228.905 24.2218 229.44 24.222H249.625C250.161 24.2218 250.674 24.0091 251.052 23.6306C251.429 23.252 251.644 22.7385 251.644 22.2032V7.39983C251.644 6.86445 251.429 6.35107 251.052 5.9725C250.674 5.59394 250.161 5.38117 249.625 5.38098ZM241.286 22.8753H237.489C233.023 22.8753 229.339 19.2798 229.339 14.8764C229.339 10.0568 233.024 6.72612 237.489 6.72612H241.286C245.702 6.72612 249.726 10.0568 249.726 14.8764C249.726 19.2798 245.702 22.8753 241.286 22.8753Z" fill="#687B8D"></path><path d="M285.572 20.1022V9.18913C285.572 9.17587 285.575 9.16264 285.58 9.1503C285.585 9.13795 285.591 9.12675 285.601 9.11735C285.61 9.10797 285.622 9.10062 285.634 9.09574C285.646 9.09087 285.66 9.08858 285.673 9.08903H287.768C287.795 9.08903 287.82 9.09958 287.838 9.11836C287.857 9.13713 287.868 9.16259 287.868 9.18913V13.1217H287.9C288.182 12.7857 288.538 12.5192 288.939 12.3428C289.34 12.1664 289.777 12.0849 290.214 12.1046C291.865 12.1046 292.394 13.183 292.394 14.6133V20.1022C292.394 20.1153 292.393 20.1282 292.386 20.1404C292.381 20.1525 292.375 20.1636 292.365 20.1728C292.356 20.1823 292.345 20.1896 292.332 20.1946C292.321 20.1997 292.308 20.2022 292.295 20.2022H290.198C290.186 20.2022 290.173 20.1997 290.16 20.1946C290.149 20.1896 290.138 20.1823 290.128 20.1728C290.118 20.1636 290.112 20.1525 290.107 20.1404C290.101 20.1282 290.099 20.1153 290.099 20.1022V14.8168C290.099 14.1968 289.454 14.0064 289.04 14.0064C288.627 14.0064 287.868 14.2776 287.868 15.0524V20.1022C287.868 20.1287 287.857 20.1541 287.838 20.1728C287.82 20.1917 287.795 20.2022 287.768 20.2022H285.673C285.646 20.2022 285.622 20.1917 285.602 20.1728C285.583 20.1541 285.572 20.1287 285.572 20.1022Z" fill="#687B8D"></path><path d="M302.301 17.9538V14.1924H301.332C301.305 14.1924 301.279 14.1818 301.262 14.163C301.243 14.1443 301.231 14.1188 301.231 14.0923V12.7427C301.231 12.722 301.239 12.7019 301.251 12.6851C301.263 12.6683 301.279 12.6557 301.3 12.6491L302.591 12.2713L303.279 10.1178C303.285 10.1037 303.295 10.0914 303.307 10.0819C303.32 10.0724 303.334 10.0658 303.349 10.0629H304.48C304.493 10.0624 304.506 10.0647 304.519 10.0696C304.531 10.0744 304.543 10.0818 304.551 10.0912C304.56 10.1006 304.568 10.1118 304.573 10.1241C304.578 10.1365 304.579 10.1497 304.579 10.1629V12.2874H306.275C306.3 12.2874 306.326 12.298 306.345 12.3168C306.364 12.3355 306.374 12.361 306.374 12.3875V14.1116C306.374 14.1246 306.372 14.1375 306.368 14.1495C306.361 14.1614 306.355 14.1723 306.345 14.1813C306.336 14.1903 306.324 14.1974 306.313 14.2021C306.3 14.2067 306.288 14.2089 306.275 14.2085H304.579V17.7148C304.579 18.0797 304.786 18.3025 305.294 18.3025H306.262C306.288 18.3025 306.313 18.313 306.332 18.3319C306.352 18.3506 306.361 18.376 306.361 18.4027C306.361 18.4284 306.361 19.6165 306.361 19.9168C306.361 19.9371 306.355 19.9568 306.344 19.9734C306.332 19.99 306.316 20.003 306.297 20.0105C305.791 20.2436 305.241 20.3648 304.683 20.3656C302.994 20.3656 302.301 19.3647 302.301 17.9538Z" fill="#687B8D"></path><path d="M335.114 17.9542V14.1928H334.145C334.118 14.1928 334.094 14.1822 334.075 14.1635C334.056 14.1447 334.044 14.1193 334.044 14.0927V12.7431C334.046 12.7224 334.052 12.7023 334.064 12.6855C334.076 12.6687 334.094 12.6561 334.113 12.6495L335.404 12.2717L336.092 10.1182C336.098 10.0986 336.111 10.0815 336.128 10.0694C336.144 10.0572 336.165 10.0506 336.186 10.0504H337.316C337.328 10.0499 337.341 10.0522 337.354 10.0571C337.367 10.0619 337.378 10.0693 337.388 10.0787C337.397 10.0881 337.404 10.0993 337.408 10.1116C337.413 10.124 337.416 10.1372 337.416 10.1505V12.2749H339.11C339.137 12.2749 339.163 12.2855 339.181 12.3043C339.2 12.323 339.211 12.3485 339.211 12.375V14.0992C339.211 14.1122 339.208 14.125 339.203 14.137C339.198 14.149 339.19 14.1598 339.181 14.1688C339.171 14.1779 339.161 14.1849 339.149 14.1896C339.136 14.1943 339.123 14.1965 339.11 14.196H337.416V17.7153C337.416 18.0802 337.623 18.3029 338.129 18.3029H339.098C339.125 18.3029 339.15 18.3135 339.168 18.3322C339.187 18.351 339.198 18.3764 339.198 18.403C339.198 18.4289 339.198 19.617 339.198 19.9173C339.197 19.9374 339.19 19.9571 339.179 19.9737C339.168 19.9905 339.152 20.0033 339.133 20.0109C338.626 20.2441 338.076 20.3652 337.519 20.366C335.807 20.366 335.114 19.3652 335.114 17.9542Z" fill="#687B8D"></path><path d="M307.764 20.1054V12.3565C307.764 12.3434 307.767 12.3304 307.772 12.3182C307.777 12.3061 307.785 12.295 307.793 12.2857C307.803 12.2764 307.814 12.2691 307.827 12.264C307.838 12.259 307.852 12.2564 307.865 12.2564H309.757C309.778 12.2567 309.797 12.2633 309.815 12.2754C309.831 12.2876 309.843 12.3046 309.85 12.3242L310.07 13.112H310.102C310.38 12.7763 310.733 12.5098 311.133 12.3334C311.533 12.1569 311.967 12.0753 312.403 12.095C313.53 12.095 314.073 12.6019 314.377 13.3865H314.441C314.705 12.9701 315.074 12.6312 315.51 12.4043C315.948 12.1774 316.439 12.0706 316.929 12.095C318.58 12.095 319.109 13.1734 319.109 14.6037V20.0924C319.109 20.119 319.099 20.1445 319.08 20.1632C319.061 20.1821 319.035 20.1926 319.01 20.1926H316.907C316.881 20.1926 316.856 20.1821 316.836 20.1632C316.817 20.1445 316.808 20.119 316.808 20.0924V14.8555C316.808 14.2356 316.223 13.9967 315.809 13.9967C315.331 13.9967 314.622 14.3002 314.59 14.9976V20.1054C314.59 20.1187 314.588 20.1319 314.583 20.1442C314.578 20.1565 314.57 20.1677 314.561 20.1771C314.551 20.1866 314.54 20.1939 314.529 20.1987C314.516 20.2037 314.503 20.2059 314.489 20.2054H312.381C312.356 20.2046 312.33 20.1938 312.312 20.1751C312.295 20.1564 312.284 20.1314 312.284 20.1054V14.8555C312.284 14.2356 311.665 13.9967 311.213 13.9967C310.916 13.9948 310.631 14.1084 310.417 14.3133C310.203 14.5182 310.077 14.7984 310.067 15.0945V20.1054C310.067 20.1314 310.056 20.1564 310.038 20.1751C310.021 20.1938 309.995 20.2046 309.97 20.2054H307.868C307.854 20.2059 307.841 20.2037 307.828 20.1989C307.815 20.1939 307.804 20.1867 307.795 20.1773C307.785 20.168 307.777 20.1568 307.772 20.1444C307.767 20.1321 307.764 20.1188 307.764 20.1054Z" fill="#687B8D"></path><path d="M320.494 14.012V12.572C320.496 12.5492 320.504 12.5274 320.518 12.5099C320.533 12.4923 320.554 12.4801 320.576 12.4752C321.584 12.2561 322.612 12.1339 323.643 12.1103C325.674 12.1103 326.871 12.6011 326.871 14.7934V20.1078C326.871 20.1343 326.861 20.1599 326.842 20.1786C326.823 20.1973 326.797 20.2078 326.772 20.2078H324.766C324.745 20.2078 324.723 20.2003 324.707 20.1869C324.689 20.1735 324.678 20.1548 324.673 20.1337L324.456 19.349H324.547C323.975 20.1433 323.216 20.366 322.288 20.366C320.795 20.366 320.001 19.207 320.001 17.8413C320.001 15.7781 321.509 15.3648 322.636 15.3648H324.573V14.8418C324.573 14.1961 324.089 14.0508 322.248 14.0508C321.471 14.0508 320.633 14.1121 320.598 14.1121C320.571 14.1121 320.546 14.1017 320.526 14.083C320.507 14.0643 320.496 14.0389 320.494 14.012ZM324.57 16.7758H323.31C322.642 16.7758 322.209 17.0309 322.209 17.7444C322.209 18.5128 322.762 18.6871 323.291 18.6871C323.464 18.6965 323.635 18.6695 323.796 18.6078C323.957 18.5463 324.103 18.4514 324.224 18.3296C324.347 18.2079 324.442 18.0616 324.502 17.9007C324.565 17.7398 324.592 17.5677 324.582 17.3957V16.7499L324.57 16.7758Z" fill="#687B8D"></path><path d="M328.208 20.1055V12.3567C328.208 12.3307 328.218 12.3058 328.237 12.2871C328.255 12.2684 328.279 12.2575 328.306 12.2566H330.177C330.201 12.2563 330.223 12.2643 330.241 12.2791C330.259 12.2939 330.271 12.3146 330.275 12.3374L330.497 13.5417H330.53C330.764 13.0973 331.117 12.727 331.55 12.4721C331.983 12.2172 332.478 12.0878 332.98 12.0984C333.007 12.0984 333.031 12.109 333.05 12.1278C333.07 12.1465 333.081 12.172 333.081 12.1985V14.3553C333.081 14.3818 333.07 14.4073 333.05 14.4261C333.031 14.4448 333.007 14.4554 332.98 14.4554H332.445C331.002 14.4554 330.506 15.0333 330.506 15.7469V20.0928C330.506 20.1187 330.497 20.1437 330.479 20.1623C330.462 20.181 330.436 20.192 330.41 20.1928H328.315C328.29 20.1947 328.264 20.1866 328.245 20.1704C328.224 20.1543 328.212 20.131 328.208 20.1055Z" fill="#687B8D"></path><path d="M293.367 16.2366C293.367 13.7118 294.352 12.1103 297.145 12.1103C299.937 12.1103 300.939 13.7247 300.939 16.2366C300.939 18.7485 299.955 20.3628 297.145 20.3628C294.336 20.3628 293.367 18.7776 293.367 16.2366ZM295.848 16.2366C295.848 17.6023 296.047 18.4386 297.139 18.4386C298.23 18.4386 298.452 17.6023 298.452 16.2366C298.452 14.8709 298.249 14.0475 297.139 14.0475C296.028 14.0475 295.848 14.8709 295.848 16.2366Z" fill="#687B8D"></path><path d="M281.262 15.4515C281.372 13.2915 280.616 9.75934 278.822 6.86966C278.772 6.7954 278.692 6.82446 278.708 6.90195C278.828 7.34105 278.857 8.13854 278.159 8.09011C276.92 8.00617 278.202 5.35217 275.48 3.51181C275.469 3.50225 275.456 3.49663 275.442 3.49599C275.429 3.49535 275.415 3.49974 275.404 3.50836C275.392 3.51695 275.386 3.52921 275.383 3.54289C275.38 3.55657 275.383 3.57074 275.389 3.58284C275.576 3.93801 275.686 5.04545 275.256 5.4232C274.911 5.72671 274.288 5.64599 273.665 4.64832C273.251 3.96013 273.037 3.16982 273.048 2.36657C273.059 1.56331 273.294 0.779061 273.727 0.102308C273.778 0.0183619 273.708 -0.0139236 273.649 0.00544856C269.905 1.24204 269.155 5.6589 268.358 7.26679C268.225 7.538 268.11 7.67684 267.88 7.66393C267.199 7.61872 267.69 6.16258 267.925 5.65567C267.931 5.64337 267.931 5.62967 267.928 5.61687C267.923 5.60409 267.915 5.59296 267.904 5.58539C267.894 5.57783 267.88 5.57427 267.867 5.57529C267.854 5.57633 267.841 5.58192 267.832 5.5911C265.646 7.99345 264.247 11.0074 263.826 14.2279C263.826 14.1536 263.792 14.4926 263.773 14.7412C263.773 14.8381 263.766 14.936 263.754 15.035C263.754 15.1513 263.754 15.2675 263.754 15.387C263.734 17.7113 264.639 19.9483 266.269 21.6055C267.899 23.2628 270.12 24.2046 272.446 24.2239C274.769 24.2433 277.006 23.3383 278.664 21.7082C280.321 20.0782 281.262 17.8568 281.281 15.5323C281.265 15.5032 281.262 15.4774 281.262 15.4515ZM272.468 19.5229C271.662 19.5184 270.878 19.2754 270.211 18.8244C269.545 18.3734 269.029 17.7348 268.725 16.9896C268.422 16.2445 268.346 15.426 268.509 14.6381C268.671 13.8501 269.064 13.128 269.636 12.5632C270.21 11.9984 270.937 11.6164 271.728 11.4654C272.517 11.3144 273.334 11.4013 274.076 11.715C274.817 12.0288 275.447 12.5553 275.889 13.2279C276.33 13.9006 276.562 14.689 276.554 15.4935C276.546 16.5694 276.11 17.5975 275.344 18.353C274.577 19.1082 273.543 19.529 272.468 19.5229Z" fill="#687B8D"></path></svg>